<?xml version="1.0" encoding="UTF-8"?>
<svg width="512pt" height="512pt" version="1.1" viewBox="0 0 512 512" xmlns="http://www.w3.org/2000/svg">
 <g fill="#d2d2d2">
  <path d="m111.32 439.56c-4.6133-9.6523 1.8008-19.266 4.2188-22.898 3.0195-4.5352 3.4766-10.07 2.9453-12.359-8.7695-0.46484-18.418-7.6797-18.418-26.871 0-17.461 7.832-35.133 22.816-35.133 1.5938 0 2.8828-0.17578 3.9219-0.41797-6.1445-17.406-21.059-61.477-31.34-107.01l-11.172-35.887c-4.6992-15.133 2.8047-31.105 17.469-37.137 11.516-4.7578 24.418-1.9883 32.941 6.4609l7.0078-29.047c0.39062-1.6211 1.1406-3.1328 2.1953-4.4219l33.27-40.664c2.2266-2.7227 5.5195-4.25 9.125-4.0508 3.5078 0.16797 6.7383 1.9961 8.6836 4.9219 15.949 23.898 64.738 89.031 98.551 103.12 55.668 23.188 74.395 69.52 76.355 74.73 7.2227 19.273 22.527 49.281 32.461 55.484 3.1758 1.9766 5.1367 5.418 5.2227 9.1445 0.085937 3.7383-1.7109 7.2539-4.7891 9.3789-9.9844 6.9102-25.082 15.984-38.727 18.758 4.1484 11.332 12.781 27.086 30.191 36.25 23.141 12.176 33.996 23.723 41.914 32.145 0.77344 0.82422 1.3789 1.3828 2.0898 2.1289 45.586-46.227 73.746-109.68 73.746-179.73 0-141.38-114.62-256-256-256s-256 114.62-256 256c0 92.527 49.102 173.58 122.66 218.55 5.6836-8.8633 10.312-17.848 11.844-23.105-9.668-1.2344-19.199-4.0273-23.18-12.344z"/>
  <path d="m437.39 463.97c-7.2227-3.9336-12.16-9.1758-17.383-14.73-7.6016-8.0898-16.227-17.254-36.086-27.703-30.883-16.258-41.062-46.289-44.191-59.895-14.594-5.3398-24.684-13.277-29.445-23.977-6.7773-15.258-0.28125-29.152 0.47656-30.695 2.7305-5.4844 9.3594-7.7344 14.867-4.9922 5.4375 2.707 7.6914 9.2812 5.0586 14.742-0.20312 0.45703-2.7383 6.3164-0.039063 12.117 2.707 5.8438 10.246 10.633 21.789 13.875 0.09375 0.027344 0.15234 0.097656 0.24609 0.12109 1.1328 0.34766 2.2266 0.82422 3.2188 1.5312 3.4648 0.54297 12.906-3.1758 22.645-8.5391-16.082-19.902-28.766-53.406-29.426-55.148-5.8281-15.555-25.906-46.125-64.117-62.051-27.348-11.391-58.789-46.023-80.785-73.688 0 0.078125 0.027344 0.13281 0.027344 0.21484 0 6.125-4.9648 11.09-11.09 11.09s-11.09-4.9648-11.09-11.09c0-2.8477-0.80859-3.4766-1.0703-3.6797-2.2734-1.7852-8.0898-1.9258-12.805-1.3008l-5.5156 6.7422-12.34 51.137c-1.0508 4.3398-4.5977 7.6289-9.0078 8.3516-4.4531 0.70312-8.8203-1.2891-11.184-5.0742l-9.8359-15.738c-2.1289-3.4219-6.375-4.8008-10.113-3.2461-3.9688 1.6289-6 5.9492-4.7266 10.047l11.398 36.734c12.855 56.785 33.297 112.2 33.5 112.75 1.1172 3 0.875 6.3477-0.65625 9.1484-0.72266 1.3203-7.332 12.555-24.746 13.391-2.2383 3.6406-3.4336 13.312-2.3242 17.965 6.543 0.97266 11.945 4.7578 15.129 10.699 5.8828 11.004 2.5508 26.375-3.7852 35.871-0.082031 0.12891-0.16406 0.25-0.24219 0.35938 1.5938 0.32422 3.793 0.64844 6.8008 0.92188 6.8906 0.62891 12.344 4.3008 14.965 10.07 4.8008 10.582-2.1523 26.926-10.297 40.59l18.324 3.0547c3.3125 0.55469 6.1992 2.5742 7.8477 5.5039 0.76953 1.3633 1.1562 2.8555 1.3008 4.3711 0.11328 1.5-0.082032 3.0273-0.5625 4.4922-0.070313 0.22656-0.019532 0.46484-0.10938 0.6875l-5.0078 12.52h308.56c-15.605-22.754-32.195-44.289-38.176-47.547zm-168.43-196.42c-0.52344 0-1.0391-0.03125-1.5703-0.10938-6.0664-0.86719-10.277-6.4805-9.4219-12.543-0.59375-3.2305-10.793-12.621-20.602-18.508-5.2539-3.1523-6.9531-9.9648-3.8008-15.215 3.1523-5.2539 9.9531-6.9648 15.215-3.8008 10.23 6.1406 33.75 22.391 31.156 40.648-0.79688 5.5312-5.5391 9.5273-10.977 9.5273z"/>
 </g>
</svg>
